<svg xmlns="http://www.w3.org/2000/svg" xmlns:xlink="http://www.w3.org/1999/xlink" width="62.856" height="62.856" viewBox="0 0 62.856 62.856">
  <defs>
    <clipPath id="clip-path">
      <path id="Mask" d="M60,19c0-.727,0-1.455,0-2.175,0-.615-.01-1.222-.027-1.837A26.758,26.758,0,0,0,59.616,11a13.494,13.494,0,0,0-1.25-3.795,12.787,12.787,0,0,0-5.578-5.572A13.314,13.314,0,0,0,49,.382,27.4,27.4,0,0,0,45,.03Q44.089.007,43.172.007C42.446,0,41.72,0,41,0H19c-.725,0-1.451,0-2.175.007q-.917,0-1.834.022A27.4,27.4,0,0,0,11,.382,13.327,13.327,0,0,0,7.21,1.635,12.791,12.791,0,0,0,1.633,7.207,13.47,13.47,0,0,0,.382,11a26.659,26.659,0,0,0-.351,3.99C.015,15.608.008,16.215,0,16.83,0,17.55,0,18.278,0,19v21.99c0,.728,0,1.455,0,2.175,0,.615.01,1.223.027,1.838A26.659,26.659,0,0,0,.382,49a13.47,13.47,0,0,0,1.25,3.795A12.791,12.791,0,0,0,7.21,58.365,13.327,13.327,0,0,0,11,59.618a26.4,26.4,0,0,0,3.991.353q.917.022,1.834.022C17.552,60,18.278,60,19,60H40.995c.725,0,1.451,0,2.175-.007q.917,0,1.833-.022a26.4,26.4,0,0,0,3.992-.353,13.314,13.314,0,0,0,3.792-1.252,12.787,12.787,0,0,0,5.578-5.573A13.494,13.494,0,0,0,59.614,49a26.757,26.757,0,0,0,.351-3.99c.016-.615.023-1.222.027-1.838,0-.72,0-1.447,0-2.175V19Z" fill="#fff"/>
    </clipPath>
  </defs>
  <g id="app_icon" data-name="app icon" transform="translate(1.928 0.928)">
    <path id="Mask-2" data-name="Mask" d="M60,19c0-.727,0-1.455,0-2.175,0-.615-.01-1.222-.027-1.837A26.758,26.758,0,0,0,59.616,11a13.494,13.494,0,0,0-1.25-3.795,12.787,12.787,0,0,0-5.578-5.572A13.314,13.314,0,0,0,49,.382,27.4,27.4,0,0,0,45,.03Q44.089.007,43.172.007C42.446,0,41.72,0,41,0H19c-.725,0-1.451,0-2.175.007q-.917,0-1.834.022A27.4,27.4,0,0,0,11,.382,13.327,13.327,0,0,0,7.21,1.635,12.791,12.791,0,0,0,1.633,7.207,13.47,13.47,0,0,0,.382,11a26.659,26.659,0,0,0-.351,3.99C.015,15.608.008,16.215,0,16.83,0,17.55,0,18.278,0,19v21.99c0,.728,0,1.455,0,2.175,0,.615.01,1.223.027,1.838A26.659,26.659,0,0,0,.382,49a13.47,13.47,0,0,0,1.25,3.795A12.791,12.791,0,0,0,7.21,58.365,13.327,13.327,0,0,0,11,59.618a26.4,26.4,0,0,0,3.991.353q.917.022,1.834.022C17.552,60,18.278,60,19,60H40.995c.725,0,1.451,0,2.175-.007q.917,0,1.833-.022a26.4,26.4,0,0,0,3.992-.353,13.314,13.314,0,0,0,3.792-1.252,12.787,12.787,0,0,0,5.578-5.573A13.494,13.494,0,0,0,59.614,49a26.757,26.757,0,0,0,.351-3.99c.016-.615.023-1.222.027-1.838,0-.72,0-1.447,0-2.175V19Z" fill="#fff" stroke="#707070" stroke-width="1"/>
    <g id="Group" clip-path="url(#clip-path)">
      <g id="App_Icon-2" data-name="App Icon">
        <rect id="x_App_Icons_Icon_Grid_background" data-name="x/App Icons/Icon Grid background" width="60" height="60" fill="none"/>
      </g>
    </g>
    <path id="Path_1" data-name="Path 1" d="M20.5,0a20.985,20.985,0,0,1,5.951.877A20.388,20.388,0,0,1,39.045,11.8c.751,1.921.67,1.505.988,2.454A20.086,20.086,0,0,1,41,20.5a20.967,20.967,0,0,1-1.02,6.4A20.5,20.5,0,1,1,20.5,0Z" transform="translate(9 10)" fill="none" stroke="#707070" stroke-linecap="round" stroke-width="4" stroke-dasharray="2191 730" style="mix-blend-mode: luminosity;isolation: isolate"/>
    <path id="Path_21" data-name="Path 21" d="M20.5,0a20.985,20.985,0,0,1,5.951.877A20.388,20.388,0,0,1,39.045,11.8c.751,1.921.67,1.505.988,2.454A20.086,20.086,0,0,1,41,20.5a20.967,20.967,0,0,1-1.02,6.4A20.5,20.5,0,1,1,20.5,0Z" transform="translate(9 10)" fill="none" stroke="#707070" stroke-linecap="round" stroke-width="2.5" stroke-dasharray="5 730" style="mix-blend-mode: luminosity;isolation: isolate"/>
    <g id="Subtraction_1" data-name="Subtraction 1" transform="translate(4291 483)" fill="#fff">
      <path d="M -4242.001953125 -454.4998168945312 C -4244.48291015625 -454.4998168945312 -4246.50146484375 -456.5184936523438 -4246.50146484375 -458.9998168945312 C -4246.50146484375 -461.4811706542969 -4244.48291015625 -463.4998779296875 -4242.001953125 -463.4998779296875 C -4239.52001953125 -463.4998779296875 -4237.50048828125 -461.4811706542969 -4237.50048828125 -458.9998168945312 C -4237.50048828125 -456.5184936523438 -4239.52001953125 -454.4998168945312 -4242.001953125 -454.4998168945312 Z" stroke="none"/>
      <path d="M -4242.001953125 -454.9998168945312 C -4239.79541015625 -454.9998168945312 -4238.00048828125 -456.7942199707031 -4238.00048828125 -458.9998168945312 C -4238.00048828125 -461.2054443359375 -4239.79541015625 -462.9998779296875 -4242.001953125 -462.9998779296875 C -4244.20751953125 -462.9998779296875 -4246.00146484375 -461.2054443359375 -4246.00146484375 -458.9998168945312 C -4246.00146484375 -456.7942199707031 -4244.20751953125 -454.9998168945312 -4242.001953125 -454.9998168945312 M -4242.001953125 -453.9998168945312 C -4244.7568359375 -453.9998168945312 -4247.00146484375 -456.2427978515625 -4247.00146484375 -458.9998168945312 C -4247.00146484375 -461.7568359375 -4244.7568359375 -463.9998779296875 -4242.001953125 -463.9998779296875 C -4239.2431640625 -463.9998779296875 -4237.00048828125 -461.7568359375 -4237.00048828125 -458.9998168945312 C -4237.00048828125 -456.2427978515625 -4239.2431640625 -453.9998168945312 -4242.001953125 -453.9998168945312 Z" stroke="none" fill="#707070"/>
    </g>
    <rect id="Rectangle_10" data-name="Rectangle 10" width="11" height="9" rx="1" transform="translate(41.991 34.905)" fill="#fff"/>
    <path id="Path_22" data-name="Path 22" d="M20.5,0a20.985,20.985,0,0,1,5.951.877A20.388,20.388,0,0,1,39.045,11.8c.751,1.921.67,1.505.988,2.454A20.086,20.086,0,0,1,41,20.5a20.967,20.967,0,0,1-1.02,6.4A20.5,20.5,0,1,1,20.5,0Z" transform="matrix(-0.105, 0.995, -0.995, -0.105, 52.031, 12.255)" fill="none" stroke="#707070" stroke-linecap="round" stroke-width="4" stroke-dasharray="5 730" style="mix-blend-mode: luminosity;isolation: isolate"/>
    <path id="Path_23" data-name="Path 23" d="M20.5,0a20.985,20.985,0,0,1,5.951.877A20.388,20.388,0,0,1,39.045,11.8c.751,1.921.67,1.505.988,2.454A20.086,20.086,0,0,1,41,20.5a20.967,20.967,0,0,1-1.02,6.4A20.5,20.5,0,1,1,20.5,0Z" transform="matrix(-0.588, 0.809, -0.809, -0.588, 58.134, 25.965)" fill="none" stroke="#707070" stroke-linecap="round" stroke-width="4" stroke-dasharray="5 730" style="mix-blend-mode: luminosity;isolation: isolate"/>
  </g>
</svg>
